<?xml version="1.0" encoding="UTF-8" standalone="no"?>
<!DOCTYPE svg PUBLIC "-//W3C//DTD SVG 1.1//EN" "http://www.w3.org/Graphics/SVG/1.1/DTD/svg11.dtd">
<svg xmlns="http://www.w3.org/2000/svg" version="1.1" viewBox="0.00 0.00 600.00 600.00">
<g stroke-width="2.00" fill="none" stroke-linecap="butt">
<path stroke="#3f1606" vector-effect="non-scaling-stroke" d="
  M 313.1788 162.8511
  A 1.17 1.00 -100.9 0 0 312.4180 164.1891
  A 1.17 1.00 -100.9 0 0 313.6212 165.1489
  A 1.17 1.00 -100.9 0 0 314.3820 163.8109
  A 1.17 1.00 -100.9 0 0 313.1788 162.8511"
/>
<path stroke="#5f2e13" vector-effect="non-scaling-stroke" d="
  M 287.5936 186.0339
  A 1.40 1.23 -60.3 0 0 285.8316 186.6406
  A 1.40 1.23 -60.3 0 0 286.2064 188.4661
  A 1.40 1.23 -60.3 0 0 287.9684 187.8594
  A 1.40 1.23 -60.3 0 0 287.5936 186.0339"
/>
<path stroke="#5f2e13" vector-effect="non-scaling-stroke" d="
  M 272.35 213.72
  Q 271.03 213.92 271.77 215.54"
/>
<path stroke="#100905" vector-effect="non-scaling-stroke" d="
  M 271.77 215.54
  Q 267.89 222.21 260.87 236.16
  Q 251.30 255.18 249.58 275.14
  Q 248.95 282.38 250.25 296.36"
/>
<path stroke="#7c3d0a" vector-effect="non-scaling-stroke" d="
  M 250.25 296.36
  L 237.54 288.35"
/>
<path stroke="#5f2e13" vector-effect="non-scaling-stroke" d="
  M 237.54 288.35
  Q 231.03 284.63 224.55 280.76
  Q 210.42 272.31 199.32 260.19
  A 0.28 0.28 0.0 0 0 198.84 260.32
  Q 198.74 260.82 198.82 261.45"
/>
<path stroke="#0d0c0b" vector-effect="non-scaling-stroke" d="
  M 198.82 261.45
  Q 198.04 262.04 197.86 262.91
  Q 193.36 284.58 198.15 305.30
  Q 202.09 322.38 211.49 334.94
  Q 221.27 347.99 236.19 356.09"
/>
<path stroke="#100905" vector-effect="non-scaling-stroke" d="
  M 236.19 356.09
  C 247.51 361.90 260.41 365.29 273.30 367.40
  Q 283.17 369.01 301.28 369.09"
/>
<path stroke="#200c06" vector-effect="non-scaling-stroke" d="
  M 301.28 369.09
  L 303.98 368.99"
/>
<path stroke="#100905" vector-effect="non-scaling-stroke" d="
  M 303.98 368.99
  Q 325.25 368.53 345.69 363.31"
/>
<path stroke="#0d0c0b" vector-effect="non-scaling-stroke" d="
  M 345.69 363.31
  Q 356.28 360.55 362.53 357.28
  Q 364.17 356.42 372.58 351.19
  Q 378.70 347.38 381.98 344.19
  Q 390.84 335.55 396.76 323.23
  C 398.47 319.66 399.25 316.36 400.58 312.67
  Q 402.02 308.66 402.86 304.55
  Q 407.25 283.00 401.97 261.25"
/>
<path stroke="#5f2e13" vector-effect="non-scaling-stroke" d="
  M 401.97 261.25
  Q 402.04 260.47 401.90 260.09
  A 0.45 0.44 -35.9 0 0 401.13 259.97
  C 394.40 268.57 385.73 274.53 376.27 280.71"
/>
<path stroke="#7c3d0a" vector-effect="non-scaling-stroke" d="
  M 376.27 280.71
  Q 361.13 289.42 349.05 298.06
  Q 331.03 310.94 319.09 330.32
  Q 313.06 340.10 306.99 353.98"
/>
<path stroke="#200c06" vector-effect="non-scaling-stroke" d="
  M 306.99 353.98
  L 301.25 367.77"
/>
<path stroke="#100905" vector-effect="non-scaling-stroke" d="
  M 301.25 367.77
  Q 300.12 368.12 299.61 365.94"
/>
<path stroke="#200c06" vector-effect="non-scaling-stroke" d="
  M 299.61 365.94
  L 294.26 353.25"
/>
<path stroke="#7c3d0a" vector-effect="non-scaling-stroke" d="
  M 294.26 353.25
  L 289.91 343.13"
/>
<path stroke="#100905" vector-effect="non-scaling-stroke" d="
  M 289.91 343.13
  C 299.79 345.43 306.77 341.92 314.10 335.56
  A 2.39 2.34 83.5 0 0 314.70 334.79
  Q 318.46 327.20 321.70 323.23
  Q 328.79 314.54 330.59 312.18
  A 4.37 4.35 -13.9 0 0 331.11 311.32
  Q 336.35 300.05 339.98 288.56
  C 349.30 259.04 346.78 218.65 319.28 198.92
  C 299.93 185.03 284.71 198.76 272.35 213.72"
/>
<path stroke="#8c460f" vector-effect="non-scaling-stroke" d="
  M 289.91 343.13
  Q 285.09 334.03 283.53 331.47
  Q 270.92 310.88 250.25 296.36"
/>
<path stroke="#6f3618" vector-effect="non-scaling-stroke" d="
  M 271.77 215.54
  Q 272.81 216.08 273.51 215.55
  A 1.04 1.03 -54.2 0 0 273.22 213.74
  Q 272.84 213.61 272.35 213.72"
/>
<path stroke="#9b490f" vector-effect="non-scaling-stroke" d="
  M 294.26 353.25
  Q 292.79 351.47 291.59 349.72
  C 281.89 335.59 267.43 324.15 251.74 316.35"
/>
<path stroke="#8c460f" vector-effect="non-scaling-stroke" d="
  M 251.74 316.35
  L 236.86 308.71"
/>
<path stroke="#884914" vector-effect="non-scaling-stroke" d="
  M 221.32 299.54
  L 236.86 308.71"
/>
<path stroke="#1d1410" vector-effect="non-scaling-stroke" d="
  M 236.86 308.71
  Q 236.00 319.05 237.43 329.19
  C 238.37 335.92 240.76 342.09 242.59 348.52
  C 244.20 354.19 240.93 355.28 236.19 356.09"
/>
<path stroke="#30150b" vector-effect="non-scaling-stroke" d="
  M 251.74 316.35
  Q 253.50 323.92 256.23 330.99
  Q 257.41 334.06 259.92 340.03
  Q 262.12 345.24 264.51 348.67
  C 269.36 355.60 276.28 358.00 283.81 360.80
  A 25.69 25.16 -17.7 0 1 288.73 363.27
  C 292.33 365.58 295.53 368.13 299.61 365.94"
/>
<path stroke="#30150b" vector-effect="non-scaling-stroke" d="
  M 301.25 367.77
  Q 301.12 368.06 301.28 369.09"
/>
<path stroke="#db6b1d" vector-effect="non-scaling-stroke" d="
  M 237.54 288.35
  L 231.73 303.59
  A 0.48 0.47 22.8 0 1 231.09 303.85
  L 221.32 299.54"
/>
<path stroke="#6c391e" vector-effect="non-scaling-stroke" d="
  M 221.32 299.54
  C 210.60 292.35 202.18 282.27 199.54 269.83
  C 198.99 267.24 199.14 264.26 198.82 261.45"
/>
<path stroke="#8c460f" vector-effect="non-scaling-stroke" d="
  M 371.92 304.54
  L 343.99 319.50"
/>
<path stroke="#9b490f" vector-effect="non-scaling-stroke" d="
  M 343.99 319.50
  Q 331.29 326.90 321.43 336.19
  Q 313.86 343.33 306.99 353.98"
/>
<path stroke="#30150b" vector-effect="non-scaling-stroke" d="
  M 303.98 368.99
  Q 311.18 364.79 325.55 356.80
  C 330.79 353.89 334.03 350.44 337.27 344.91
  Q 342.82 335.42 345.73 330.82
  C 348.23 326.86 349.87 321.48 343.99 319.50"
/>
<path stroke="#1d1410" vector-effect="non-scaling-stroke" d="
  M 345.69 363.31
  C 350.49 355.77 356.36 349.19 362.01 342.31
  C 370.39 332.09 372.30 318.07 371.92 304.54"
/>
<path stroke="#884914" vector-effect="non-scaling-stroke" d="
  M 371.92 304.54
  L 378.22 300.73"
/>
<path stroke="#6c391e" vector-effect="non-scaling-stroke" d="
  M 401.97 261.25
  Q 401.24 279.36 390.02 291.27
  Q 385.73 295.82 378.22 300.73"
/>
<path stroke="#db6b1d" vector-effect="non-scaling-stroke" d="
  M 378.22 300.73
  Q 374.01 299.06 372.28 293.40
  C 370.31 286.94 373.06 285.54 376.27 280.71"
/>
<path stroke="#100905" vector-effect="non-scaling-stroke" d="
  M 367.66 380.68
  A 1.28 1.28 0.0 0 0 367.16 378.81
  Q 363.86 377.19 359.67 376.49
  Q 349.59 374.80 339.48 374.94
  Q 306.69 375.39 277.73 374.55
  C 265.54 374.20 256.28 375.05 244.53 376.26
  Q 241.50 376.57 239.04 377.83
  A 1.16 1.15 58.2 0 0 238.64 379.54
  C 241.61 383.58 259.53 384.25 263.74 384.37
  Q 298.96 385.37 329.39 385.20
  Q 336.83 385.16 352.53 384.24
  C 354.77 384.11 365.87 383.29 367.66 380.68"
/>
<path stroke="#8c460f" vector-effect="non-scaling-stroke" d="
  M 319.3064 201.2940
  A 1.28 1.04 -4.3 0 0 317.9520 200.3529
  A 1.28 1.04 -4.3 0 0 316.7536 201.4860
  A 1.28 1.04 -4.3 0 0 318.1080 202.4271
  A 1.28 1.04 -4.3 0 0 319.3064 201.2940"
/>
<path stroke="#30150b" vector-effect="non-scaling-stroke" d="
  M 299.42 222.77
  C 282.33 231.76 270.26 248.96 265.68 267.28
  C 261.68 283.24 263.32 299.09 274.35 311.08
  C 287.27 325.15 302.74 324.99 314.69 309.43
  Q 322.64 299.07 327.94 286.99"
/>
<path stroke="#4f1f0b" vector-effect="non-scaling-stroke" d="
  M 327.94 286.99
  L 329.95 280.64
  A 0.60 0.34 74.5 0 0 329.99 280.48
  C 330.56 275.69 331.84 270.23 330.65 265.48"
/>
<path stroke="#6f3618" vector-effect="non-scaling-stroke" d="
  M 330.65 265.48
  Q 330.02 257.66 326.03 249.17"
/>
<path stroke="#8c460f" vector-effect="non-scaling-stroke" d="
  M 326.03 249.17
  Q 322.84 241.90 319.63 236.63
  Q 314.30 227.90 309.80 220.21
  C 307.47 216.21 304.70 212.60 302.54 208.41
  A 0.20 0.20 0.0 0 0 302.16 208.51
  Q 302.32 215.80 299.42 222.77"
/>
<path stroke="#db6b1d" vector-effect="non-scaling-stroke" d="
  M 326.03 249.17
  Q 323.34 270.37 309.39 280.28"
/>
<path stroke="#fba032" vector-effect="non-scaling-stroke" d="
  M 309.39 280.28
  Q 314.18 265.08 307.75 251.74
  A 0.55 0.55 0.0 0 0 306.71 251.90
  C 305.67 258.38 303.36 264.07 299.54 270.16
  C 294.32 278.50 290.13 285.36 290.44 295.68"
/>
<path stroke="#db6b1d" vector-effect="non-scaling-stroke" d="
  M 290.44 295.68
  Q 286.91 295.87 281.49 297.55
  Q 278.29 298.54 274.25 296.93"
/>
<path stroke="#9b490f" vector-effect="non-scaling-stroke" d="
  M 274.25 296.93
  C 269.26 285.93 270.61 275.14 275.39 264.90
  Q 282.51 249.62 293.31 235.29
  Q 295.65 232.19 299.42 222.77"
/>
<path stroke="#7f3a19" vector-effect="non-scaling-stroke" d="
  M 274.25 296.93
  Q 276.94 304.13 282.01 310.03"
/>
<path stroke="#5e220b" vector-effect="non-scaling-stroke" d="
  M 282.01 310.03
  L 286.80 314.89
  A 0.65 0.64 -35.5 0 0 287.56 315.01
  L 294.62 311.27"
/>
<path stroke="#9f6f2e" vector-effect="non-scaling-stroke" d="
  M 294.62 311.27
  L 298.67 317.62"
/>
<path stroke="#5e220b" vector-effect="non-scaling-stroke" d="
  M 298.67 317.62
  Q 300.89 314.24 303.22 311.73
  Q 307.34 307.30 308.22 306.23
  Q 311.64 302.04 314.01 300.26
  Q 321.64 294.54 327.94 286.99"
/>
<path stroke="#be792e" vector-effect="non-scaling-stroke" d="
  M 302.10 292.74
  Q 297.29 300.21 297.34 309.25
  Q 297.37 313.05 298.67 317.62"
/>
<path stroke="#be792e" vector-effect="non-scaling-stroke" d="
  M 294.62 311.27
  L 291.81 305.16"
/>
<path stroke="#df903b" vector-effect="non-scaling-stroke" d="
  M 291.81 305.16
  L 290.44 295.68"
/>
<path stroke="#9e4419" vector-effect="non-scaling-stroke" d="
  M 330.65 265.48
  Q 329.76 267.60 328.57 269.63
  Q 320.70 282.94 319.55 284.78
  C 317.13 288.67 312.47 291.06 309.57 293.71
  Q 306.63 296.39 304.00 298.73
  A 0.17 0.17 0.0 0 1 303.77 298.72
  L 303.54 298.49
  A 0.24 0.24 0.0 0 1 303.54 298.15
  L 314.02 288.36
  A 0.08 0.06 -27.7 0 0 314.05 288.29
  Q 314.04 288.27 314.04 288.25
  A 0.07 0.07 0.0 0 0 313.93 288.22
  Q 313.03 289.07 312.09 289.84
  Q 310.13 291.46 311.58 289.24
  Q 312.13 288.39 313.06 286.94
  A 0.17 0.17 0.0 0 0 312.80 286.73
  L 312.47 287.07
  A 0.34 0.33 80.1 0 1 311.93 286.69
  L 314.36 281.50
  A 0.04 0.04 0.0 0 0 314.35 281.45
  L 314.12 281.32
  A 0.28 0.28 0.0 0 0 313.74 281.42
  Q 309.26 288.49 302.10 292.74"
/>
<path stroke="#df903b" vector-effect="non-scaling-stroke" d="
  M 302.10 292.74
  L 309.39 280.28"
/>
<path stroke="#9e4419" vector-effect="non-scaling-stroke" d="
  M 291.81 305.16
  C 288.27 306.50 285.67 309.18 282.01 310.03"
/>
<path stroke="#6f3618" vector-effect="non-scaling-stroke" d="
  M 283.7702 227.6077
  A 1.23 1.08 -53.0 0 0 282.1675 227.9400
  A 1.23 1.08 -53.0 0 0 282.2898 229.5723
  A 1.23 1.08 -53.0 0 0 283.8925 229.2400
  A 1.23 1.08 -53.0 0 0 283.7702 227.6077"
/>
<path stroke="#30150b" vector-effect="non-scaling-stroke" d="
  M 277.86 234.47
  A 0.90 0.74 -56.0 0 0 276.41 234.90
  Q 276.20 235.61 276.78 235.83
  Q 277.52 236.10 277.84 235.58
  Q 278.17 235.02 277.86 234.47"
/>
<path stroke="#fba032" vector-effect="non-scaling-stroke" d="
  M 295.9706 254.1467
  A 1.26 1.06 -159.4 0 0 296.7770 255.5822
  A 1.26 1.06 -159.4 0 0 298.3294 255.0333
  A 1.26 1.06 -159.4 0 0 297.5230 253.5978
  A 1.26 1.06 -159.4 0 0 295.9706 254.1467"
/>
<path stroke="#30150b" vector-effect="non-scaling-stroke" d="
  M 291.0224 380.0467
  A 9.40 1.59 -178.7 0 0 300.3839 381.8496
  A 9.40 1.59 -178.7 0 0 309.8176 380.4733
  A 9.40 1.59 -178.7 0 0 300.4561 378.6704
  A 9.40 1.59 -178.7 0 0 291.0224 380.0467"
/>
</g>
<path fill="#000000" d="
  M 600.00 0.00
  L 600.00 600.00
  L 0.00 600.00
  L 0.00 0.00
  L 600.00 0.00
  Z
  M 313.1788 162.8511
  A 1.17 1.00 -100.9 0 0 312.4180 164.1891
  A 1.17 1.00 -100.9 0 0 313.6212 165.1489
  A 1.17 1.00 -100.9 0 0 314.3820 163.8109
  A 1.17 1.00 -100.9 0 0 313.1788 162.8511
  Z
  M 287.5936 186.0339
  A 1.40 1.23 -60.3 0 0 285.8316 186.6406
  A 1.40 1.23 -60.3 0 0 286.2064 188.4661
  A 1.40 1.23 -60.3 0 0 287.9684 187.8594
  A 1.40 1.23 -60.3 0 0 287.5936 186.0339
  Z
  M 272.35 213.72
  Q 271.03 213.92 271.77 215.54
  Q 267.89 222.21 260.87 236.16
  Q 251.30 255.18 249.58 275.14
  Q 248.95 282.38 250.25 296.36
  L 237.54 288.35
  Q 231.03 284.63 224.55 280.76
  Q 210.42 272.31 199.32 260.19
  A 0.28 0.28 0.0 0 0 198.84 260.32
  Q 198.74 260.82 198.82 261.45
  Q 198.04 262.04 197.86 262.91
  Q 193.36 284.58 198.15 305.30
  Q 202.09 322.38 211.49 334.94
  Q 221.27 347.99 236.19 356.09
  C 247.51 361.90 260.41 365.29 273.30 367.40
  Q 283.17 369.01 301.28 369.09
  L 303.98 368.99
  Q 325.25 368.53 345.69 363.31
  Q 356.28 360.55 362.53 357.28
  Q 364.17 356.42 372.58 351.19
  Q 378.70 347.38 381.98 344.19
  Q 390.84 335.55 396.76 323.23
  C 398.47 319.66 399.25 316.36 400.58 312.67
  Q 402.02 308.66 402.86 304.55
  Q 407.25 283.00 401.97 261.25
  Q 402.04 260.47 401.90 260.09
  A 0.45 0.44 -35.9 0 0 401.13 259.97
  C 394.40 268.57 385.73 274.53 376.27 280.71
  Q 361.13 289.42 349.05 298.06
  Q 331.03 310.94 319.09 330.32
  Q 313.06 340.10 306.99 353.98
  L 301.25 367.77
  Q 300.12 368.12 299.61 365.94
  L 294.26 353.25
  L 289.91 343.13
  C 299.79 345.43 306.77 341.92 314.10 335.56
  A 2.39 2.34 83.5 0 0 314.70 334.79
  Q 318.46 327.20 321.70 323.23
  Q 328.79 314.54 330.59 312.18
  A 4.37 4.35 -13.9 0 0 331.11 311.32
  Q 336.35 300.05 339.98 288.56
  C 349.30 259.04 346.78 218.65 319.28 198.92
  C 299.93 185.03 284.71 198.76 272.35 213.72
  Z
  M 367.66 380.68
  A 1.28 1.28 0.0 0 0 367.16 378.81
  Q 363.86 377.19 359.67 376.49
  Q 349.59 374.80 339.48 374.94
  Q 306.69 375.39 277.73 374.55
  C 265.54 374.20 256.28 375.05 244.53 376.26
  Q 241.50 376.57 239.04 377.83
  A 1.16 1.15 58.2 0 0 238.64 379.54
  C 241.61 383.58 259.53 384.25 263.74 384.37
  Q 298.96 385.37 329.39 385.20
  Q 336.83 385.16 352.53 384.24
  C 354.77 384.11 365.87 383.29 367.66 380.68
  Z"
/>
<ellipse fill="#7d2c0b" cx="0.00" cy="0.00" transform="translate(313.40,164.00) rotate(-100.9)" rx="1.17" ry="1.00"/>
<ellipse fill="#be5b26" cx="0.00" cy="0.00" transform="translate(286.90,187.25) rotate(-60.3)" rx="1.40" ry="1.23"/>
<path fill="#20110a" d="
  M 289.91 343.13
  Q 285.09 334.03 283.53 331.47
  Q 270.92 310.88 250.25 296.36
  Q 248.95 282.38 249.58 275.14
  Q 251.30 255.18 260.87 236.16
  Q 267.89 222.21 271.77 215.54
  Q 272.81 216.08 273.51 215.55
  A 1.04 1.03 -54.2 0 0 273.22 213.74
  Q 272.84 213.61 272.35 213.72
  C 284.71 198.76 299.93 185.03 319.28 198.92
  C 346.78 218.65 349.30 259.04 339.98 288.56
  Q 336.35 300.05 331.11 311.32
  A 4.37 4.35 -13.9 0 1 330.59 312.18
  Q 328.79 314.54 321.70 323.23
  Q 318.46 327.20 314.70 334.79
  A 2.39 2.34 83.5 0 1 314.10 335.56
  C 306.77 341.92 299.79 345.43 289.91 343.13
  Z
  M 319.3064 201.2940
  A 1.28 1.04 -4.3 0 0 317.9520 200.3529
  A 1.28 1.04 -4.3 0 0 316.7536 201.4860
  A 1.28 1.04 -4.3 0 0 318.1080 202.4271
  A 1.28 1.04 -4.3 0 0 319.3064 201.2940
  Z
  M 299.42 222.77
  C 282.33 231.76 270.26 248.96 265.68 267.28
  C 261.68 283.24 263.32 299.09 274.35 311.08
  C 287.27 325.15 302.74 324.99 314.69 309.43
  Q 322.64 299.07 327.94 286.99
  L 329.95 280.64
  A 0.60 0.34 74.5 0 0 329.99 280.48
  C 330.56 275.69 331.84 270.23 330.65 265.48
  Q 330.02 257.66 326.03 249.17
  Q 322.84 241.90 319.63 236.63
  Q 314.30 227.90 309.80 220.21
  C 307.47 216.21 304.70 212.60 302.54 208.41
  A 0.20 0.20 0.0 0 0 302.16 208.51
  Q 302.32 215.80 299.42 222.77
  Z
  M 283.7702 227.6077
  A 1.23 1.08 -53.0 0 0 282.1675 227.9400
  A 1.23 1.08 -53.0 0 0 282.2898 229.5723
  A 1.23 1.08 -53.0 0 0 283.8925 229.2400
  A 1.23 1.08 -53.0 0 0 283.7702 227.6077
  Z
  M 277.86 234.47
  A 0.90 0.74 -56.0 0 0 276.41 234.90
  Q 276.20 235.61 276.78 235.83
  Q 277.52 236.10 277.84 235.58
  Q 278.17 235.02 277.86 234.47
  Z"
/>
<ellipse fill="#f77a13" cx="0.00" cy="0.00" transform="translate(318.03,201.39) rotate(-4.3)" rx="1.28" ry="1.04"/>
<path fill="#f77a13" d="
  M 326.03 249.17
  Q 323.34 270.37 309.39 280.28
  Q 314.18 265.08 307.75 251.74
  A 0.55 0.55 0.0 0 0 306.71 251.90
  C 305.67 258.38 303.36 264.07 299.54 270.16
  C 294.32 278.50 290.13 285.36 290.44 295.68
  Q 286.91 295.87 281.49 297.55
  Q 278.29 298.54 274.25 296.93
  C 269.26 285.93 270.61 275.14 275.39 264.90
  Q 282.51 249.62 293.31 235.29
  Q 295.65 232.19 299.42 222.77
  Q 302.32 215.80 302.16 208.51
  A 0.20 0.20 0.0 0 1 302.54 208.41
  C 304.70 212.60 307.47 216.21 309.80 220.21
  Q 314.30 227.90 319.63 236.63
  Q 322.84 241.90 326.03 249.17
  Z
  M 295.9706 254.1467
  A 1.26 1.06 -159.4 0 0 296.7770 255.5822
  A 1.26 1.06 -159.4 0 0 298.3294 255.0333
  A 1.26 1.06 -159.4 0 0 297.5230 253.5978
  A 1.26 1.06 -159.4 0 0 295.9706 254.1467
  Z"
/>
<path fill="#be5b26" d="
  M 272.35 213.72
  Q 272.84 213.61 273.22 213.74
  A 1.04 1.03 -54.2 0 1 273.51 215.55
  Q 272.81 216.08 271.77 215.54
  Q 271.03 213.92 272.35 213.72
  Z"
/>
<path fill="#3f180b" d="
  M 299.42 222.77
  Q 295.65 232.19 293.31 235.29
  Q 282.51 249.62 275.39 264.90
  C 270.61 275.14 269.26 285.93 274.25 296.93
  Q 276.94 304.13 282.01 310.03
  L 286.80 314.89
  A 0.65 0.64 -35.5 0 0 287.56 315.01
  L 294.62 311.27
  L 298.67 317.62
  Q 300.89 314.24 303.22 311.73
  Q 307.34 307.30 308.22 306.23
  Q 311.64 302.04 314.01 300.26
  Q 321.64 294.54 327.94 286.99
  Q 322.64 299.07 314.69 309.43
  C 302.74 324.99 287.27 325.15 274.35 311.08
  C 263.32 299.09 261.68 283.24 265.68 267.28
  C 270.26 248.96 282.33 231.76 299.42 222.77
  Z"
/>
<ellipse fill="#be5b26" cx="0.00" cy="0.00" transform="translate(283.03,228.59) rotate(-53.0)" rx="1.23" ry="1.08"/>
<path fill="#3f180b" d="
  M 277.86 234.47
  Q 278.17 235.02 277.84 235.58
  Q 277.52 236.10 276.78 235.83
  Q 276.20 235.61 276.41 234.90
  A 0.90 0.74 -56.0 0 1 277.86 234.47
  Z"
/>
<path fill="#be5b26" d="
  M 330.65 265.48
  Q 329.76 267.60 328.57 269.63
  Q 320.70 282.94 319.55 284.78
  C 317.13 288.67 312.47 291.06 309.57 293.71
  Q 306.63 296.39 304.00 298.73
  A 0.17 0.17 0.0 0 1 303.77 298.72
  L 303.54 298.49
  A 0.24 0.24 0.0 0 1 303.54 298.15
  L 314.02 288.36
  A 0.08 0.06 -27.7 0 0 314.05 288.29
  Q 314.04 288.27 314.04 288.25
  A 0.07 0.07 0.0 0 0 313.93 288.22
  Q 313.03 289.07 312.09 289.84
  Q 310.13 291.46 311.58 289.24
  Q 312.13 288.39 313.06 286.94
  A 0.17 0.17 0.0 0 0 312.80 286.73
  L 312.47 287.07
  A 0.34 0.33 80.1 0 1 311.93 286.69
  L 314.36 281.50
  A 0.04 0.04 0.0 0 0 314.35 281.45
  L 314.12 281.32
  A 0.28 0.28 0.0 0 0 313.74 281.42
  Q 309.26 288.49 302.10 292.74
  L 309.39 280.28
  Q 323.34 270.37 326.03 249.17
  Q 330.02 257.66 330.65 265.48
  Z"
/>
<path fill="#ffc550" d="
  M 309.39 280.28
  L 302.10 292.74
  Q 297.29 300.21 297.34 309.25
  Q 297.37 313.05 298.67 317.62
  L 294.62 311.27
  L 291.81 305.16
  L 290.44 295.68
  C 290.13 285.36 294.32 278.50 299.54 270.16
  C 303.36 264.07 305.67 258.38 306.71 251.90
  A 0.55 0.55 0.0 0 1 307.75 251.74
  Q 314.18 265.08 309.39 280.28
  Z"
/>
<ellipse fill="#ffc550" cx="0.00" cy="0.00" transform="translate(297.15,254.59) rotate(-159.4)" rx="1.26" ry="1.06"/>
<path fill="#be5b26" d="
  M 237.54 288.35
  L 231.73 303.59
  A 0.48 0.47 22.8 0 1 231.09 303.85
  L 221.32 299.54
  C 210.60 292.35 202.18 282.27 199.54 269.83
  C 198.99 267.24 199.14 264.26 198.82 261.45
  Q 198.74 260.82 198.84 260.32
  A 0.28 0.28 0.0 0 1 199.32 260.19
  Q 210.42 272.31 224.55 280.76
  Q 231.03 284.63 237.54 288.35
  Z"
/>
<path fill="#be5b26" d="
  M 401.97 261.25
  Q 401.24 279.36 390.02 291.27
  Q 385.73 295.82 378.22 300.73
  Q 374.01 299.06 372.28 293.40
  C 370.31 286.94 373.06 285.54 376.27 280.71
  C 385.73 274.53 394.40 268.57 401.13 259.97
  A 0.45 0.44 -35.9 0 1 401.90 260.09
  Q 402.04 260.47 401.97 261.25
  Z"
/>
<path fill="#191715" d="
  M 198.82 261.45
  C 199.14 264.26 198.99 267.24 199.54 269.83
  C 202.18 282.27 210.60 292.35 221.32 299.54
  L 236.86 308.71
  Q 236.00 319.05 237.43 329.19
  C 238.37 335.92 240.76 342.09 242.59 348.52
  C 244.20 354.19 240.93 355.28 236.19 356.09
  Q 221.27 347.99 211.49 334.94
  Q 202.09 322.38 198.15 305.30
  Q 193.36 284.58 197.86 262.91
  Q 198.04 262.04 198.82 261.45
  Z"
/>
<path fill="#191715" d="
  M 401.97 261.25
  Q 407.25 283.00 402.86 304.55
  Q 402.02 308.66 400.58 312.67
  C 399.25 316.36 398.47 319.66 396.76 323.23
  Q 390.84 335.55 381.98 344.19
  Q 378.70 347.38 372.58 351.19
  Q 364.17 356.42 362.53 357.28
  Q 356.28 360.55 345.69 363.31
  C 350.49 355.77 356.36 349.19 362.01 342.31
  C 370.39 332.09 372.30 318.07 371.92 304.54
  L 378.22 300.73
  Q 385.73 295.82 390.02 291.27
  Q 401.24 279.36 401.97 261.25
  Z"
/>
<path fill="#7d2c0b" d="
  M 330.65 265.48
  C 331.84 270.23 330.56 275.69 329.99 280.48
  A 0.60 0.34 74.5 0 1 329.95 280.64
  L 327.94 286.99
  Q 321.64 294.54 314.01 300.26
  Q 311.64 302.04 308.22 306.23
  Q 307.34 307.30 303.22 311.73
  Q 300.89 314.24 298.67 317.62
  Q 297.37 313.05 297.34 309.25
  Q 297.29 300.21 302.10 292.74
  Q 309.26 288.49 313.74 281.42
  A 0.28 0.28 0.0 0 1 314.12 281.32
  L 314.35 281.45
  A 0.04 0.04 0.0 0 1 314.36 281.50
  L 311.93 286.69
  A 0.34 0.33 80.1 0 0 312.47 287.07
  L 312.80 286.73
  A 0.17 0.17 0.0 0 1 313.06 286.94
  Q 312.13 288.39 311.58 289.24
  Q 310.13 291.46 312.09 289.84
  Q 313.03 289.07 313.93 288.22
  A 0.07 0.07 0.0 0 1 314.04 288.25
  Q 314.04 288.27 314.05 288.29
  A 0.08 0.06 -27.7 0 1 314.02 288.36
  L 303.54 298.15
  A 0.24 0.24 0.0 0 0 303.54 298.49
  L 303.77 298.72
  A 0.17 0.17 0.0 0 0 304.00 298.73
  Q 306.63 296.39 309.57 293.71
  C 312.47 291.06 317.13 288.67 319.55 284.78
  Q 320.70 282.94 328.57 269.63
  Q 329.76 267.60 330.65 265.48
  Z"
/>
<path fill="#f77a13" d="
  M 376.27 280.71
  C 373.06 285.54 370.31 286.94 372.28 293.40
  Q 374.01 299.06 378.22 300.73
  L 371.92 304.54
  L 343.99 319.50
  Q 331.29 326.90 321.43 336.19
  Q 313.86 343.33 306.99 353.98
  Q 313.06 340.10 319.09 330.32
  Q 331.03 310.94 349.05 298.06
  Q 361.13 289.42 376.27 280.71
  Z"
/>
<path fill="#f77a13" d="
  M 237.54 288.35
  L 250.25 296.36
  Q 270.92 310.88 283.53 331.47
  Q 285.09 334.03 289.91 343.13
  L 294.26 353.25
  Q 292.79 351.47 291.59 349.72
  C 281.89 335.59 267.43 324.15 251.74 316.35
  L 236.86 308.71
  L 221.32 299.54
  L 231.09 303.85
  A 0.48 0.47 22.8 0 0 231.73 303.59
  L 237.54 288.35
  Z"
/>
<path fill="#be5b26" d="
  M 290.44 295.68
  L 291.81 305.16
  C 288.27 306.50 285.67 309.18 282.01 310.03
  Q 276.94 304.13 274.25 296.93
  Q 278.29 298.54 281.49 297.55
  Q 286.91 295.87 290.44 295.68
  Z"
/>
<path fill="#7d2c0b" d="
  M 291.81 305.16
  L 294.62 311.27
  L 287.56 315.01
  A 0.65 0.64 -35.5 0 1 286.80 314.89
  L 282.01 310.03
  C 285.67 309.18 288.27 306.50 291.81 305.16
  Z"
/>
<path fill="#20110a" d="
  M 371.92 304.54
  C 372.30 318.07 370.39 332.09 362.01 342.31
  C 356.36 349.19 350.49 355.77 345.69 363.31
  Q 325.25 368.53 303.98 368.99
  Q 311.18 364.79 325.55 356.80
  C 330.79 353.89 334.03 350.44 337.27 344.91
  Q 342.82 335.42 345.73 330.82
  C 348.23 326.86 349.87 321.48 343.99 319.50
  L 371.92 304.54
  Z"
/>
<path fill="#20110a" d="
  M 251.74 316.35
  Q 253.50 323.92 256.23 330.99
  Q 257.41 334.06 259.92 340.03
  Q 262.12 345.24 264.51 348.67
  C 269.36 355.60 276.28 358.00 283.81 360.80
  A 25.69 25.16 -17.7 0 1 288.73 363.27
  C 292.33 365.58 295.53 368.13 299.61 365.94
  Q 300.12 368.12 301.25 367.77
  Q 301.12 368.06 301.28 369.09
  Q 283.17 369.01 273.30 367.40
  C 260.41 365.29 247.51 361.90 236.19 356.09
  C 240.93 355.28 244.20 354.19 242.59 348.52
  C 240.76 342.09 238.37 335.92 237.43 329.19
  Q 236.00 319.05 236.86 308.71
  L 251.74 316.35
  Z"
/>
<path fill="#3f180b" d="
  M 294.26 353.25
  L 299.61 365.94
  C 295.53 368.13 292.33 365.58 288.73 363.27
  A 25.69 25.16 -17.7 0 0 283.81 360.80
  C 276.28 358.00 269.36 355.60 264.51 348.67
  Q 262.12 345.24 259.92 340.03
  Q 257.41 334.06 256.23 330.99
  Q 253.50 323.92 251.74 316.35
  C 267.43 324.15 281.89 335.59 291.59 349.72
  Q 292.79 351.47 294.26 353.25
  Z"
/>
<path fill="#3f180b" d="
  M 303.98 368.99
  L 301.28 369.09
  Q 301.12 368.06 301.25 367.77
  L 306.99 353.98
  Q 313.86 343.33 321.43 336.19
  Q 331.29 326.90 343.99 319.50
  C 349.87 321.48 348.23 326.86 345.73 330.82
  Q 342.82 335.42 337.27 344.91
  C 334.03 350.44 330.79 353.89 325.55 356.80
  Q 311.18 364.79 303.98 368.99
  Z"
/>
<path fill="#20110a" d="
  M 367.66 380.68
  C 365.87 383.29 354.77 384.11 352.53 384.24
  Q 336.83 385.16 329.39 385.20
  Q 298.96 385.37 263.74 384.37
  C 259.53 384.25 241.61 383.58 238.64 379.54
  A 1.16 1.15 58.2 0 1 239.04 377.83
  Q 241.50 376.57 244.53 376.26
  C 256.28 375.05 265.54 374.20 277.73 374.55
  Q 306.69 375.39 339.48 374.94
  Q 349.59 374.80 359.67 376.49
  Q 363.86 377.19 367.16 378.81
  A 1.28 1.28 0.0 0 1 367.66 380.68
  Z
  M 291.0224 380.0467
  A 9.40 1.59 -178.7 0 0 300.3839 381.8496
  A 9.40 1.59 -178.7 0 0 309.8176 380.4733
  A 9.40 1.59 -178.7 0 0 300.4561 378.6704
  A 9.40 1.59 -178.7 0 0 291.0224 380.0467
  Z"
/>
<ellipse fill="#3f180b" cx="0.00" cy="0.00" transform="translate(300.42,380.26) rotate(-178.7)" rx="9.40" ry="1.59"/>
</svg>
