<svg version="1.1" id="Layer_1" xmlns="http://www.w3.org/2000/svg" xmlns:xlink="http://www.w3.org/1999/xlink" x="0px" y="0px"
	 width="100%" viewBox="0 0 600 600" enable-background="new 0 0 600 600" xml:space="preserve">
<path fill="#020101" opacity="1.000000" stroke="none" 
	d="
M264.000000,601.000000 
	C176.000000,601.000000 88.500000,601.000000 1.000000,601.000000 
	C1.000000,401.000000 1.000000,201.000000 1.000000,1.000000 
	C201.000000,1.000000 401.000000,1.000000 601.000000,1.000000 
	C601.000000,201.000000 601.000000,401.000000 601.000000,601.000000 
	C488.833344,601.000000 376.666656,601.000000 264.000000,601.000000 
M309.654816,350.463135 
	C307.105774,356.604462 304.556763,362.745819 301.627167,369.804016 
	C304.639648,369.804016 306.248657,369.804016 308.776550,369.886078 
	C315.345306,369.240112 321.943817,368.808990 328.476776,367.904541 
	C343.164215,365.871185 357.418854,362.413330 370.610382,353.695679 
	C381.895416,347.480774 390.343292,338.569244 396.448975,326.477264 
	C404.291992,311.004395 407.327728,294.617584 405.501709,277.389069 
	C405.056915,273.192505 403.934418,269.067719 403.010223,264.242279 
	C402.874817,263.361450 402.739410,262.480621 402.775452,262.715088 
	C392.195221,270.349335 381.486511,278.076294 370.112244,286.013092 
	C364.072083,290.008606 358.031952,294.004120 351.325043,298.156464 
	C348.926025,299.908173 346.527008,301.659851 344.137909,302.616547 
	C344.774384,300.747406 345.057434,298.647858 346.102448,297.045135 
	C355.581573,282.507690 356.284576,266.251587 355.650726,249.701324 
	C355.506012,245.923187 356.073486,241.988846 355.205109,238.394089 
	C353.379028,230.835083 350.876678,223.435242 348.546661,216.003082 
	C343.763245,200.745117 329.649414,193.357498 319.606750,182.611526 
	C317.313721,180.157913 316.485626,178.548248 317.057159,175.552048 
	C311.293884,176.100449 306.036102,176.415588 300.841614,177.167664 
	C297.936584,177.588272 294.183838,177.856720 292.469757,179.718765 
	C287.540039,185.073975 281.208740,188.949295 277.655334,195.939453 
	C275.139252,200.889008 269.658539,204.254166 265.961395,208.708527 
	C263.595306,211.559189 262.010376,215.073761 260.185638,218.352142 
	C259.148468,220.215561 258.332001,222.201996 257.419037,224.134384 
	C254.108307,231.141739 250.632385,238.077560 247.552887,245.185120 
	C245.778946,249.279419 244.632996,253.647247 243.228622,257.899963 
	C239.600281,268.887268 240.487411,280.055481 241.286346,291.101166 
	C240.524719,290.729126 239.763107,290.357086 238.634735,289.420471 
	C225.715378,281.194000 211.956680,274.119751 201.553696,262.417938 
	C201.362823,262.203247 200.288147,262.774261 199.218338,263.571594 
	C195.554352,274.768524 196.092438,286.375183 197.761002,297.594025 
	C199.149765,306.931702 203.154358,315.880280 206.173386,325.677704 
	C213.365707,339.589081 223.740952,350.267273 238.508545,357.470367 
	C255.723129,366.003540 274.105865,369.373688 293.994049,369.842682 
	C301.409760,369.923401 301.884583,369.224457 298.990906,362.365967 
	C297.386810,358.563904 295.741455,354.779266 294.850922,351.159241 
	C298.438629,352.537231 301.381195,351.505768 304.428619,349.296967 
	C306.589783,347.730469 309.406586,347.068573 311.843262,346.631592 
	C311.286530,347.746857 310.729797,348.862091 309.654816,350.463135 
M312.626770,376.305603 
	C310.585449,375.872650 308.547119,375.080627 306.502319,375.063538 
	C290.237823,374.927673 273.955383,374.471161 257.712006,375.051758 
	C244.493591,375.524231 231.314102,377.220428 218.136810,378.564606 
	C216.133820,378.768890 214.236298,380.006958 212.289993,380.766846 
	C212.374222,381.384918 212.458450,382.002960 212.542679,382.621033 
	C219.086014,384.063629 225.573929,386.352783 232.183365,386.785400 
	C249.924149,387.946716 267.719666,388.931549 285.488403,388.852478 
	C312.590240,388.731873 339.700073,387.945404 366.779053,386.795441 
	C373.985535,386.489380 381.091949,383.826904 388.244293,382.246338 
	C388.253937,381.715485 388.263580,381.184631 388.273224,380.653778 
	C386.676392,380.102936 385.118500,379.340942 383.475952,379.037872 
	C376.451416,377.741730 369.433685,375.827179 362.354858,375.528992 
	C347.933258,374.921539 333.473694,375.164001 319.030273,375.212402 
	C317.682159,375.216919 316.337769,376.335175 314.341583,376.953522 
	C313.908386,376.953156 313.475189,376.952820 312.626770,376.305603 
z"/>
<path fill="#120401" opacity="1.000000" stroke="none" 
	d="
M241.918762,291.243500 
	C240.487411,280.055481 239.600281,268.887268 243.228622,257.899963 
	C244.632996,253.647247 245.778946,249.279419 247.552887,245.185120 
	C250.632385,238.077560 254.108307,231.141739 257.419037,224.134384 
	C258.332001,222.201996 259.148468,220.215561 260.185638,218.352142 
	C262.010376,215.073761 263.595306,211.559189 265.961395,208.708527 
	C269.658539,204.254166 275.139252,200.889008 277.655334,195.939453 
	C281.208740,188.949295 287.540039,185.073975 292.469757,179.718765 
	C294.183838,177.856720 297.936584,177.588272 300.841614,177.167664 
	C306.036102,176.415588 311.293884,176.100449 317.057159,175.552048 
	C316.485626,178.548248 317.313721,180.157913 319.606750,182.611526 
	C329.649414,193.357498 343.763245,200.745117 348.546661,216.003082 
	C350.876678,223.435242 353.379028,230.835083 355.205109,238.394089 
	C356.073486,241.988846 355.506012,245.923187 355.650726,249.701324 
	C356.284576,266.251587 355.581573,282.507690 346.102448,297.045135 
	C345.057434,298.647858 344.774384,300.747406 343.931458,303.277191 
	C339.736664,307.828888 335.091553,311.248932 331.894379,315.707336 
	C324.852112,325.527802 318.540527,335.872284 311.930756,346.002899 
	C309.406586,347.068573 306.589783,347.730469 304.428619,349.296967 
	C301.381195,351.505768 298.438629,352.537231 294.215576,351.055878 
	C293.402802,350.969177 293.225372,350.985840 293.088165,350.615143 
	C291.474548,346.488251 289.820740,342.748718 288.586975,339.009094 
	C291.470062,339.325745 293.925690,339.778503 296.398590,339.912781 
	C298.130890,340.006866 300.343109,340.290955 301.551392,339.408722 
	C306.190765,336.021515 310.970856,332.622101 314.838928,328.433502 
	C320.070770,322.768066 324.976257,316.670959 329.142914,310.193695 
	C332.432281,305.080231 334.672211,299.220642 336.884888,293.501526 
	C340.579102,283.953064 345.183167,274.630951 344.227783,263.832489 
	C343.760315,258.549133 344.146851,253.190201 344.146851,247.214569 
	C340.517120,245.011780 339.550873,240.306061 339.164581,235.729965 
	C338.770386,231.060043 340.225189,226.051117 334.945496,223.049515 
	C334.495117,222.793472 334.502045,221.821960 334.166260,221.260803 
	C332.336243,218.202621 331.153168,214.171265 328.472931,212.323654 
	C321.834656,207.747559 316.228760,201.711182 307.626678,199.721222 
	C301.224182,198.240082 296.295227,199.956192 292.243561,203.582977 
	C287.245697,208.056717 283.146851,213.605896 279.042633,218.982773 
	C276.144470,222.779556 273.713409,226.968002 271.383392,231.153931 
	C268.811890,235.773712 266.300568,240.469269 264.287750,245.348297 
	C260.895355,253.571472 257.779724,261.917480 254.843765,270.315277 
	C253.904724,273.001312 253.667511,276.002777 253.519440,278.881012 
	C253.189377,285.296082 253.117996,291.724518 252.600113,298.040283 
	C248.812286,295.703217 245.365524,293.473358 241.918762,291.243500 
M319.080078,201.288361 
	C319.048370,201.106613 319.016663,200.924866 318.984955,200.743118 
	C318.941254,200.921783 318.897552,201.100433 319.080078,201.288361 
z"/>
<path fill="#0F0A07" opacity="1.000000" stroke="none" 
	d="
M314.991638,376.936310 
	C316.337769,376.335175 317.682159,375.216919 319.030273,375.212402 
	C333.473694,375.164001 347.933258,374.921539 362.354858,375.528992 
	C369.433685,375.827179 376.451416,377.741730 383.475952,379.037872 
	C385.118500,379.340942 386.676392,380.102936 388.273224,380.653778 
	C388.263580,381.184631 388.253937,381.715485 388.244293,382.246338 
	C381.091949,383.826904 373.985535,386.489380 366.779053,386.795441 
	C339.700073,387.945404 312.590240,388.731873 285.488403,388.852478 
	C267.719666,388.931549 249.924149,387.946716 232.183365,386.785400 
	C225.573929,386.352783 219.086014,384.063629 212.542679,382.621033 
	C212.458450,382.002960 212.374222,381.384918 212.289993,380.766846 
	C214.236298,380.006958 216.133820,378.768890 218.136810,378.564606 
	C231.314102,377.220428 244.493591,375.524231 257.712006,375.051758 
	C273.955383,374.471161 290.237823,374.927673 306.502319,375.063538 
	C308.547119,375.080627 310.585449,375.872650 312.361176,376.642792 
	C293.532532,377.075806 274.929596,376.567261 255.693375,379.610931 
	C262.154266,386.715637 335.634430,386.723877 343.738434,380.045898 
	C335.131866,378.252350 327.185028,376.845123 318.592255,378.904205 
	C317.153473,378.907196 316.107513,378.892456 315.052094,378.554504 
	C315.025635,377.799622 315.008636,377.367950 314.991638,376.936310 
z"/>
<path fill="#1B1817" opacity="1.000000" stroke="none" 
	d="
M206.000305,325.001221 
	C203.154358,315.880280 199.149765,306.931702 197.761002,297.594025 
	C196.092438,286.375183 195.554352,274.768524 199.495087,263.711487 
	C200.148621,272.777557 203.069565,280.807373 208.578094,287.808075 
	C214.838013,295.763611 222.706757,301.734253 231.998886,306.299011 
	C235.745987,308.597870 239.396133,310.557312 242.671906,312.714661 
	C237.939835,315.657745 237.124313,320.011108 237.056641,324.648956 
	C236.982040,329.763123 237.014160,334.878845 236.651855,339.949036 
	C230.551651,336.569183 224.790131,333.249878 219.059265,329.878448 
	C218.372330,329.474335 217.607895,328.899078 217.292953,328.213257 
	C214.757431,322.691742 210.829376,322.322540 206.000305,325.001221 
z"/>
<path fill="#1B1817" opacity="1.000000" stroke="none" 
	d="
M403.123535,264.909943 
	C403.934418,269.067719 405.056915,273.192505 405.501709,277.389069 
	C407.327728,294.617584 404.291992,311.004395 395.873230,326.663818 
	C392.086609,325.459808 390.246735,327.532318 388.010437,329.351318 
	C385.335144,331.527374 382.383148,333.633667 379.197968,334.831299 
	C376.380829,335.890503 373.079346,335.661499 369.991638,335.546783 
	C370.498566,330.681030 370.831787,326.241089 371.553406,321.865173 
	C372.624420,315.370331 370.566010,310.906769 365.856293,309.558838 
	C370.533905,306.502930 375.062836,303.784912 379.914276,301.048767 
	C393.746277,292.716400 401.114044,280.510742 403.123535,264.909943 
z"/>
<path fill="#45180A" opacity="1.000000" stroke="none" 
	d="
M293.047943,351.002472 
	C293.225372,350.985840 293.402802,350.969177 293.847473,350.969635 
	C295.741455,354.779266 297.386810,358.563904 298.990906,362.365967 
	C301.884583,369.224457 301.409760,369.923401 293.506226,369.492737 
	C291.027069,363.780121 286.186493,363.117737 281.515411,361.920898 
	C278.769043,361.217194 276.097321,360.006836 273.580444,358.669708 
	C268.999603,356.236053 264.559113,353.538177 259.966919,350.563751 
	C257.629211,339.377441 255.384689,328.577972 253.487183,317.844269 
	C263.213654,324.637054 272.593079,331.364044 282.149963,338.369446 
	C285.900940,342.766052 289.474426,346.884277 293.047943,351.002472 
z"/>
<path fill="#B65726" opacity="1.000000" stroke="none" 
	d="
M231.901932,305.959625 
	C222.706757,301.734253 214.838013,295.763611 208.578094,287.808075 
	C203.069565,280.807373 200.148621,272.777557 199.698837,263.415039 
	C200.288147,262.774261 201.362823,262.203247 201.553696,262.417938 
	C211.956680,274.119751 225.715378,281.194000 238.661682,290.076294 
	C238.436646,292.821655 238.341675,294.945099 237.898529,296.993256 
	C237.089355,300.733215 236.843399,304.946442 231.901932,305.959625 
z"/>
<path fill="#1C0E09" opacity="1.000000" stroke="none" 
	d="
M369.982727,353.986115 
	C357.418854,362.413330 343.164215,365.871185 328.476776,367.904541 
	C321.943817,368.808990 315.345306,369.240112 308.437439,369.533447 
	C309.830170,367.721405 311.405090,365.997711 313.326141,364.857025 
	C317.454193,362.405853 321.760559,360.255066 326.368286,357.955566 
	C329.331421,356.870270 331.864868,355.639404 334.519043,354.782410 
	C343.579651,351.856689 351.514984,344.930878 362.084167,347.314087 
	C364.782196,349.757233 367.382446,351.871674 369.982727,353.986115 
z"/>
<path fill="#B65726" opacity="1.000000" stroke="none" 
	d="
M403.066895,264.576111 
	C401.114044,280.510742 393.746277,292.716400 379.536316,300.967773 
	C377.441681,299.642334 375.485596,298.636780 374.766785,297.065308 
	C373.116730,293.457855 372.069641,289.574554 370.777802,285.803253 
	C381.486511,278.076294 392.195221,270.349335 402.775452,262.715088 
	C402.739410,262.480621 402.874817,263.361450 403.066895,264.576111 
z"/>
<path fill="#1C0E09" opacity="1.000000" stroke="none" 
	d="
M260.060059,350.950562 
	C264.559113,353.538177 268.999603,356.236053 273.580444,358.669708 
	C276.097321,360.006836 278.769043,361.217194 281.515411,361.920898 
	C286.186493,363.117737 291.027069,363.780121 293.082855,369.487671 
	C274.105865,369.373688 255.723129,366.003540 238.494598,356.953125 
	C238.990768,353.618286 239.500885,350.800720 240.421234,347.989441 
	C247.240982,348.980682 253.650513,349.965637 260.060059,350.950562 
z"/>
<path fill="#F57D13" opacity="1.000000" stroke="none" 
	d="
M311.887024,346.317261 
	C318.540527,335.872284 324.852112,325.527802 331.894379,315.707336 
	C335.091553,311.248932 339.736664,307.828888 343.926483,303.674683 
	C346.527008,301.659851 348.926025,299.908173 351.655884,298.473206 
	C350.851532,301.263702 349.371735,303.645905 348.683014,306.238281 
	C348.058167,308.590302 348.294769,311.171234 348.151550,313.651245 
	C350.241730,313.460571 352.392578,313.517242 354.408295,313.022888 
	C357.658386,312.225830 360.819366,311.065643 363.774841,310.295807 
	C356.855499,314.148071 349.897278,317.335327 343.581116,321.497070 
	C337.043243,325.805023 331.128235,331.058319 324.625061,336.027618 
	C321.160370,339.236420 318.011597,342.315918 314.862366,345.394928 
	C313.299683,346.922821 311.736206,348.449890 310.173096,349.977325 
	C310.729797,348.862091 311.286530,347.746857 311.887024,346.317261 
z"/>
<path fill="#E96F19" opacity="1.000000" stroke="none" 
	d="
M364.018005,310.058868 
	C360.819366,311.065643 357.658386,312.225830 354.408295,313.022888 
	C352.392578,313.517242 350.241730,313.460571 348.151550,313.651245 
	C348.294769,311.171234 348.058167,308.590302 348.683014,306.238281 
	C349.371735,303.645905 350.851532,301.263702 351.989258,298.394775 
	C358.031952,294.004120 364.072083,290.008606 370.445007,285.908173 
	C372.069641,289.574554 373.116730,293.457855 374.766785,297.065308 
	C375.485596,298.636780 377.441681,299.642334 379.213806,300.985901 
	C375.062836,303.784912 370.533905,306.502930 365.572937,309.572235 
	C364.766602,309.968658 364.392303,310.013763 364.018005,310.058868 
z"/>
<path fill="#161311" opacity="1.000000" stroke="none" 
	d="
M240.010986,347.983154 
	C239.500885,350.800720 238.990768,353.618286 238.238113,356.720276 
	C223.740952,350.267273 213.365707,339.589081 206.086853,325.339478 
	C210.829376,322.322540 214.757431,322.691742 217.292953,328.213257 
	C217.607895,328.899078 218.372330,329.474335 219.059265,329.878448 
	C224.790131,333.249878 230.551651,336.569183 236.745026,340.290314 
	C238.127731,343.112000 239.069366,345.547577 240.010986,347.983154 
z"/>
<path fill="#45180A" opacity="1.000000" stroke="none" 
	d="
M309.913940,350.220215 
	C311.736206,348.449890 313.299683,346.922821 314.862366,345.394928 
	C318.011597,342.315918 321.160370,339.236420 324.799988,336.375549 
	C327.956299,343.643127 328.198822,350.772003 325.993927,357.981323 
	C321.760559,360.255066 317.454193,362.405853 313.326141,364.857025 
	C311.405090,365.997711 309.830170,367.721405 307.978027,369.492432 
	C306.248657,369.804016 304.639648,369.804016 301.627167,369.804016 
	C304.556763,362.745819 307.105774,356.604462 309.913940,350.220215 
z"/>
<path fill="#1C0E09" opacity="1.000000" stroke="none" 
	d="
M318.985107,378.886475 
	C327.185028,376.845123 335.131866,378.252350 343.738434,380.045898 
	C335.634430,386.723877 262.154266,386.715637 255.693375,379.610931 
	C274.929596,376.567261 293.532532,377.075806 312.568787,376.966248 
	C313.475189,376.952820 313.908386,376.953156 314.666626,376.944916 
	C315.008636,377.367950 315.025635,377.799622 314.577332,378.582703 
	C302.649841,379.253357 291.127197,378.442841 279.614288,380.402710 
	C280.958710,381.939178 282.384155,382.865875 283.820343,382.882812 
	C293.759033,382.999969 303.707916,383.128693 313.632965,382.734802 
	C315.465027,382.662079 317.203461,380.229736 318.985107,378.886475 
z"/>
<path fill="#161311" opacity="1.000000" stroke="none" 
	d="
M370.296570,353.840881 
	C367.382446,351.871674 364.782196,349.757233 362.238037,347.010071 
	C364.859985,342.918640 367.425842,339.459930 369.991699,336.001221 
	C373.079346,335.661499 376.380829,335.890503 379.197968,334.831299 
	C382.383148,333.633667 385.335144,331.527374 388.010437,329.351318 
	C390.246735,327.532318 392.086609,325.459808 395.643219,326.922363 
	C390.343292,338.569244 381.895416,347.480774 370.296570,353.840881 
z"/>
<path fill="#E96F19" opacity="1.000000" stroke="none" 
	d="
M231.998886,306.299011 
	C236.843399,304.946442 237.089355,300.733215 237.898529,296.993256 
	C238.341675,294.945099 238.436646,292.821655 238.845062,290.358582 
	C239.763107,290.357086 240.524719,290.729126 241.602554,291.172333 
	C245.365524,293.473358 248.812286,295.703217 252.696594,298.249756 
	C253.354355,298.793823 253.618179,298.945099 254.003052,299.265686 
	C254.378891,299.640320 254.677307,299.769470 255.170410,300.077698 
	C255.570801,300.538696 255.776520,300.820648 255.969742,301.497986 
	C255.420929,304.101868 255.488495,306.781097 254.214981,308.415039 
	C251.978699,311.284271 251.996933,314.009705 252.609100,317.043640 
	C249.184891,315.496613 246.115570,314.006714 243.046265,312.516785 
	C239.396133,310.557312 235.745987,308.597870 231.998886,306.299011 
z"/>
<path fill="#210501" opacity="1.000000" stroke="none" 
	d="
M255.982239,301.102631 
	C255.776520,300.820648 255.570801,300.538696 255.005630,299.919373 
	C254.413834,299.384735 254.173660,299.197449 253.925659,299.020233 
	C253.618179,298.945099 253.354355,298.793823 253.037689,298.356964 
	C253.117996,291.724518 253.189377,285.296082 253.519440,278.881012 
	C253.667511,276.002777 253.904724,273.001312 254.843765,270.315277 
	C257.779724,261.917480 260.895355,253.571472 264.287750,245.348297 
	C266.300568,240.469269 268.811890,235.773712 271.383392,231.153931 
	C273.713409,226.968002 276.144470,222.779556 279.042633,218.982773 
	C283.146851,213.605896 287.245697,208.056717 292.243561,203.582977 
	C296.295227,199.956192 301.224182,198.240082 307.626678,199.721222 
	C316.228760,201.711182 321.834656,207.747559 328.472931,212.323654 
	C331.153168,214.171265 332.336243,218.202621 334.166260,221.260803 
	C334.502045,221.821960 334.495117,222.793472 334.945496,223.049515 
	C340.225189,226.051117 338.770386,231.060043 339.164581,235.729965 
	C339.550873,240.306061 340.517120,245.011780 344.146851,247.214569 
	C344.146851,253.190201 343.760315,258.549133 344.227783,263.832489 
	C345.183167,274.630951 340.579102,283.953064 336.884888,293.501526 
	C334.672211,299.220642 332.432281,305.080231 329.142914,310.193695 
	C324.976257,316.670959 320.070770,322.768066 314.838928,328.433502 
	C310.970856,332.622101 306.190765,336.021515 301.551392,339.408722 
	C300.343109,340.290955 298.130890,340.006866 296.398590,339.912781 
	C293.925690,339.778503 291.470062,339.325745 288.427856,338.724548 
	C287.222565,337.314392 286.596436,336.188751 286.137177,334.748474 
	C287.164703,334.057892 288.165161,333.184113 288.865112,333.380615 
	C299.343781,336.322876 307.246002,330.849182 313.636505,324.248505 
	C319.742737,317.941467 324.712067,310.256897 328.958252,302.507751 
	C332.813568,295.471924 336.385864,287.756531 337.660492,279.945404 
	C339.977509,265.746124 340.016907,251.502853 333.701996,237.664703 
	C329.384491,228.203552 324.480072,219.536880 316.829834,212.447769 
	C311.982025,207.955536 310.895447,207.707947 304.438110,211.065857 
	C303.954163,210.797821 303.698029,210.601303 303.441895,210.404785 
	C303.364899,210.548416 303.243958,210.684418 303.217407,210.836853 
	C302.802063,213.222168 302.398895,215.609619 301.806335,217.719406 
	C300.772949,215.639709 300.094604,213.301208 297.397461,215.108612 
	C292.053131,218.690002 286.607300,222.162888 281.572296,226.146835 
	C278.572632,228.520340 277.299103,232.039688 278.655212,236.081177 
	C272.716553,238.802612 268.922974,242.666290 268.299133,249.272476 
	C268.093811,251.446716 266.459930,253.465027 265.601898,255.603821 
	C264.449860,258.475342 263.259521,261.347931 262.382904,264.308136 
	C261.691376,266.643433 261.640594,269.166321 260.972473,271.511078 
	C258.526031,280.097076 254.917923,288.509216 258.248566,297.746002 
	C258.551361,298.585724 257.266541,299.997925 256.534607,301.136810 
	C256.350250,301.129364 255.982239,301.102631 255.982239,301.102631 
z"/>
<path fill="#E96F19" opacity="1.000000" stroke="none" 
	d="
M285.970337,335.063110 
	C286.596436,336.188751 287.222565,337.314392 288.007782,338.724609 
	C289.820740,342.748718 291.474548,346.488251 293.088165,350.615143 
	C289.474426,346.884277 285.900940,342.766052 282.218140,338.015869 
	C283.141663,336.565002 284.174438,335.746094 285.399658,334.951782 
	C285.592072,334.976410 285.970337,335.063110 285.970337,335.063110 
z"/>
<path fill="#210501" opacity="1.000000" stroke="none" 
	d="
M318.966949,201.283722 
	C318.897552,201.100433 318.941254,200.921783 318.984955,200.743118 
	C319.016663,200.924866 319.048370,201.106613 318.966949,201.283722 
z"/>
<path fill="#28170F" opacity="1.000000" stroke="none" 
	d="
M318.592255,378.904205 
	C317.203461,380.229736 315.465027,382.662079 313.632965,382.734802 
	C303.707916,383.128693 293.759033,382.999969 283.820343,382.882812 
	C282.384155,382.865875 280.958710,381.939178 279.614288,380.402710 
	C291.127197,378.442841 302.649841,379.253357 314.586823,378.905945 
	C316.107513,378.892456 317.153473,378.907196 318.592255,378.904205 
z"/>
<path fill="#28170F" opacity="1.000000" stroke="none" 
	d="
M242.671906,312.714661 
	C246.115570,314.006714 249.184891,315.496613 252.657074,317.212036 
	C253.059967,317.437531 253.140182,317.778473 253.140167,317.778473 
	C255.384689,328.577972 257.629211,339.377441 259.966919,350.563782 
	C253.650513,349.965637 247.240982,348.980682 240.421219,347.989441 
	C239.069366,345.547577 238.127731,343.112000 237.092957,340.335144 
	C237.014160,334.878845 236.982040,329.763123 237.056641,324.648956 
	C237.124313,320.011108 237.939835,315.657745 242.671906,312.714661 
z"/>
<path fill="#28170F" opacity="1.000000" stroke="none" 
	d="
M369.991669,335.546814 
	C367.425842,339.459930 364.859985,342.918640 362.140259,346.681335 
	C351.514984,344.930878 343.579651,351.856689 334.519043,354.782410 
	C331.864868,355.639404 329.331421,356.870270 326.368286,357.955566 
	C328.198822,350.772003 327.956299,343.643127 325.115723,336.246033 
	C331.128235,331.058319 337.043243,325.805023 343.581116,321.497070 
	C349.897278,317.335327 356.855499,314.148071 363.774841,310.295807 
	C364.392303,310.013763 364.766602,309.968658 365.424255,309.910095 
	C370.566010,310.906769 372.624420,315.370331 371.553406,321.865173 
	C370.831787,326.241089 370.498566,330.681030 369.991669,335.546814 
z"/>
<path fill="#F57D13" opacity="1.000000" stroke="none" 
	d="
M253.487198,317.844269 
	C253.140182,317.778473 253.059967,317.437531 253.011993,317.269104 
	C251.996933,314.009705 251.978699,311.284271 254.214981,308.415039 
	C255.488495,306.781097 255.420929,304.101868 255.969742,301.497986 
	C255.982239,301.102631 256.350250,301.129364 256.714233,301.423279 
	C259.153992,303.408356 261.229797,305.099518 263.493652,307.053040 
	C266.219543,309.756744 268.757355,312.198029 271.482910,314.916992 
	C276.182861,321.772156 280.695038,328.349670 285.207214,334.927155 
	C284.174438,335.746094 283.141663,336.565002 282.040710,337.737457 
	C272.593079,331.364044 263.213654,324.637054 253.487198,317.844269 
z"/>
<path fill="#120401" opacity="1.000000" stroke="none" 
	d="
M254.003052,299.265686 
	C254.173660,299.197449 254.413834,299.384735 254.810959,299.740356 
	C254.677307,299.769470 254.378891,299.640320 254.003052,299.265686 
z"/>
<path fill="#FD9B2F" opacity="1.000000" stroke="none" 
	d="
M301.992920,217.996567 
	C302.398895,215.609619 302.802063,213.222168 303.217407,210.836853 
	C303.243958,210.684418 303.364899,210.548416 303.441895,210.404785 
	C303.698029,210.601303 303.954163,210.797821 304.542664,211.402283 
	C307.141205,215.250519 309.407440,218.690842 311.763794,222.477081 
	C315.494568,229.211090 319.135254,235.599167 322.453735,242.093079 
	C320.465057,245.578842 318.648956,248.894913 317.172150,252.355743 
	C315.534729,256.192932 314.207336,260.162415 312.556580,263.766907 
	C311.294159,260.411865 310.220123,257.364197 308.827698,253.413010 
	C305.997192,259.697418 303.997803,264.725952 301.509125,269.499420 
	C298.921631,274.462524 295.861267,279.179108 292.692596,283.841614 
	C290.751465,276.736206 288.206390,269.842651 287.824524,262.831329 
	C287.572601,258.205811 285.922241,256.350769 282.444519,254.613510 
	C285.096191,250.279205 287.704132,246.297607 290.159973,242.224319 
	C292.348114,238.595093 294.367981,234.864410 296.752167,231.008423 
	C298.114227,228.400986 299.186310,225.963623 300.492432,223.238647 
	C301.148621,221.299545 301.570770,219.648056 301.992920,217.996567 
z"/>
<path fill="#300801" opacity="1.000000" stroke="none" 
	d="
M311.673706,222.131149 
	C309.407440,218.690842 307.141205,215.250519 304.770447,211.473785 
	C310.895447,207.707947 311.982025,207.955536 316.829834,212.447769 
	C324.480072,219.536880 329.384491,228.203552 333.701996,237.664703 
	C340.016907,251.502853 339.977509,265.746124 337.660492,279.945404 
	C336.385864,287.756531 332.813568,295.471924 328.958252,302.507751 
	C324.712067,310.256897 319.742737,317.941467 313.636505,324.248505 
	C307.246002,330.849182 299.343781,336.322876 288.865112,333.380615 
	C288.165161,333.184113 287.164703,334.057892 286.137177,334.748474 
	C285.970337,335.063110 285.592072,334.976410 285.399658,334.951782 
	C280.695038,328.349670 276.182861,321.772156 271.660950,314.757263 
	C271.651245,314.319885 272.003662,313.996338 272.380005,314.008118 
	C274.380554,314.735870 276.192474,315.194000 277.594635,316.214966 
	C282.253540,319.607239 286.627380,323.402527 291.373383,326.660309 
	C295.791260,329.692810 303.420258,326.901093 305.282135,321.805786 
	C308.691986,318.725555 311.834778,315.847076 315.328613,312.894135 
	C316.921692,312.054626 318.652679,311.585022 319.323517,310.474823 
	C322.734772,304.829224 326.396759,299.240906 328.962433,293.203949 
	C331.747131,286.651489 335.338684,279.582916 335.181702,272.818207 
	C334.855225,258.747040 334.028534,244.294830 325.277405,232.040039 
	C321.831085,227.213943 317.905914,223.104446 311.673706,222.131149 
z"/>
<path fill="#300801" opacity="1.000000" stroke="none" 
	d="
M263.305573,306.790649 
	C261.229797,305.099518 259.153992,303.408356 256.898590,301.430725 
	C257.266541,299.997925 258.551361,298.585724 258.248566,297.746002 
	C254.917923,288.509216 258.526031,280.097076 260.972473,271.511078 
	C261.640594,269.166321 261.691376,266.643433 262.382904,264.308136 
	C263.259521,261.347931 264.449860,258.475342 265.601898,255.603821 
	C266.459930,253.465027 268.093811,251.446716 268.299133,249.272476 
	C268.922974,242.666290 272.716553,238.802612 278.667267,236.092529 
	C279.012726,236.012558 279.035858,236.034882 279.026550,236.425339 
	C278.707428,238.252350 278.824738,240.017044 278.015686,241.069977 
	C274.007263,246.286758 269.622955,251.131790 268.028442,257.891388 
	C266.454987,264.561859 263.519867,270.958984 262.407288,277.678833 
	C260.846161,287.107819 261.575562,296.651703 263.841553,306.179260 
	C263.542603,306.517822 263.424103,306.654236 263.305573,306.790649 
z"/>
<path fill="#300801" opacity="1.000000" stroke="none" 
	d="
M301.806335,217.719406 
	C301.570770,219.648056 301.148621,221.299545 300.236786,222.948761 
	C298.751160,222.402771 297.423401,221.144592 296.811920,221.428604 
	C292.019897,223.654358 287.345062,226.139282 282.712616,228.686996 
	C282.399902,228.858978 282.504486,230.284714 282.791229,230.969910 
	C284.414429,234.848831 281.934784,235.573669 279.035858,236.034882 
	C279.035858,236.034882 279.012726,236.012558 279.000671,236.001221 
	C277.299103,232.039688 278.572632,228.520340 281.572296,226.146835 
	C286.607300,222.162888 292.053131,218.690002 297.397461,215.108612 
	C300.094604,213.301208 300.772949,215.639709 301.806335,217.719406 
z"/>
<path fill="#300801" opacity="1.000000" stroke="none" 
	d="
M271.473206,314.479614 
	C268.757355,312.198029 266.219543,309.756744 263.493652,307.053040 
	C263.424103,306.654236 263.542603,306.517822 264.246643,306.182617 
	C270.258881,306.428528 271.529480,307.848145 272.003662,313.996338 
	C272.003662,313.996338 271.651245,314.319885 271.473206,314.479614 
z"/>
<path fill="#410B01" opacity="1.000000" stroke="none" 
	d="
M272.380005,314.008118 
	C271.529480,307.848145 270.258881,306.428528 264.427124,305.980469 
	C261.575562,296.651703 260.846161,287.107819 262.407288,277.678833 
	C263.519867,270.958984 266.454987,264.561859 268.028442,257.891388 
	C269.622955,251.131790 274.007263,246.286758 278.015686,241.069977 
	C278.824738,240.017044 278.707428,238.252350 279.026550,236.425339 
	C281.934784,235.573669 284.414429,234.848831 282.791229,230.969910 
	C282.504486,230.284714 282.399902,228.858978 282.712616,228.686996 
	C287.345062,226.139282 292.019897,223.654358 296.811920,221.428604 
	C297.423401,221.144592 298.751160,222.402771 300.002747,223.236389 
	C299.186310,225.963623 298.114227,228.400986 296.373657,231.021652 
	C290.223633,235.631760 284.710632,240.020859 279.300842,244.533600 
	C278.633820,245.089996 278.481628,246.293121 278.150391,247.217865 
	C275.219971,255.398972 271.891113,263.467896 269.522034,271.809143 
	C267.848236,277.702545 267.243622,283.943665 266.640564,290.076599 
	C266.381500,292.711273 266.560333,295.953094 267.891113,298.069733 
	C271.299988,303.491699 275.604858,308.340179 279.296112,313.597260 
	C284.350128,320.795288 290.972961,322.439575 299.269836,319.874573 
	C299.670197,320.015167 299.830231,320.071228 300.271667,320.306610 
	C302.040436,320.993103 303.527740,321.500305 305.015076,322.007507 
	C303.420258,326.901093 295.791260,329.692810 291.373383,326.660309 
	C286.627380,323.402527 282.253540,319.607239 277.594635,316.214966 
	C276.192474,315.194000 274.380554,314.735870 272.380005,314.008118 
z"/>
<path fill="#5B1102" opacity="1.000000" stroke="none" 
	d="
M299.029480,319.789978 
	C290.972961,322.439575 284.350128,320.795288 279.296112,313.597260 
	C275.604858,308.340179 271.299988,303.491699 267.891113,298.069733 
	C266.560333,295.953094 266.381500,292.711273 266.640564,290.076599 
	C267.243622,283.943665 267.848236,277.702545 269.522034,271.809143 
	C271.891113,263.467896 275.219971,255.398972 278.150391,247.217865 
	C278.481628,246.293121 278.633820,245.089996 279.300842,244.533600 
	C284.710632,240.020859 290.223633,235.631760 296.083679,231.191742 
	C294.367981,234.864410 292.348114,238.595093 290.159973,242.224319 
	C287.704132,246.297607 285.096191,250.279205 282.184479,254.875214 
	C277.242889,263.794403 272.490387,272.073395 272.119934,282.406403 
	C273.683380,288.977234 275.312988,295.109161 276.994141,301.539429 
	C277.710236,302.878082 278.374786,303.918365 279.141785,305.278931 
	C280.495148,307.437286 281.746063,309.275330 283.180695,311.373840 
	C285.076752,313.271545 286.789093,314.908813 288.311005,316.364014 
	C290.531311,314.240173 292.176514,312.666443 294.003296,311.395142 
	C295.779083,313.768372 297.373260,315.839172 298.940247,318.147339 
	C298.951874,318.853119 298.990662,319.321564 299.029480,319.789978 
z"/>
<path fill="#FDC24D" opacity="1.000000" stroke="none" 
	d="
M298.967407,317.909973 
	C297.373260,315.839172 295.779083,313.768372 294.062561,311.042297 
	C293.382233,308.863068 292.824249,307.339111 292.240906,305.450256 
	C291.929169,303.661957 291.642822,302.238525 291.365387,300.452393 
	C291.274780,299.370270 291.175262,298.650818 291.104736,297.520752 
	C291.090607,295.739105 291.047424,294.368073 291.162506,292.658020 
	C291.883057,289.547150 292.445374,286.775299 293.007690,284.003479 
	C295.861267,279.179108 298.921631,274.462524 301.509125,269.499420 
	C303.997803,264.725952 305.997192,259.697418 308.827698,253.413010 
	C310.220123,257.364197 311.294159,260.411865 312.598450,264.200989 
	C312.875427,267.286835 312.922150,269.631287 312.848694,272.332947 
	C308.918762,280.456482 305.109009,288.222809 301.263550,296.390137 
	C300.390900,300.809357 299.553925,304.827545 298.647491,309.337952 
	C298.707825,312.523438 298.837616,315.216705 298.967407,317.909973 
z"/>
<path fill="#F57D13" opacity="1.000000" stroke="none" 
	d="
M292.692596,283.841614 
	C292.445374,286.775299 291.883057,289.547150 290.770050,292.644897 
	C284.630524,291.700684 279.115814,290.423706 275.903351,284.814148 
	C275.188141,283.565247 273.452087,282.900970 272.186035,281.967499 
	C272.490387,272.073395 277.242889,263.794403 282.074554,255.188019 
	C285.922241,256.350769 287.572601,258.205811 287.824524,262.831329 
	C288.206390,269.842651 290.751465,276.736206 292.692596,283.841614 
z"/>
<path fill="#410B01" opacity="1.000000" stroke="none" 
	d="
M311.763794,222.477081 
	C317.905914,223.104446 321.831085,227.213943 325.277405,232.040039 
	C334.028534,244.294830 334.855225,258.747040 335.181702,272.818207 
	C335.338684,279.582916 331.747131,286.651489 328.962433,293.203949 
	C326.396759,299.240906 322.734772,304.829224 319.323517,310.474823 
	C318.652679,311.585022 316.921692,312.054626 315.366333,312.536926 
	C316.237701,310.146484 317.373749,308.009521 318.617432,305.937195 
	C321.038452,301.903168 323.519806,297.905304 326.160767,293.604736 
	C328.071045,287.141632 329.796722,280.966217 331.598328,274.375916 
	C331.404968,270.629425 331.135712,267.297852 330.901001,263.583374 
	C330.295258,260.804504 329.654938,258.408569 328.972168,255.653503 
	C327.981201,253.135437 327.032654,250.976501 326.034027,248.474792 
	C324.914581,246.083740 323.845276,244.035492 322.775940,241.987244 
	C319.135254,235.599167 315.494568,229.211090 311.763794,222.477081 
z"/>
<path fill="#F57D13" opacity="1.000000" stroke="none" 
	d="
M322.453735,242.093079 
	C323.845276,244.035492 324.914581,246.083740 325.859528,248.818512 
	C325.144165,251.389816 324.635132,253.305099 323.947357,255.153885 
	C321.556396,261.581024 319.689392,268.368134 312.968872,271.975739 
	C312.922150,269.631287 312.875427,267.286835 312.786804,264.508331 
	C314.207336,260.162415 315.534729,256.192932 317.172150,252.355743 
	C318.648956,248.894913 320.465057,245.578842 322.453735,242.093079 
z"/>
<path fill="#45180A" opacity="1.000000" stroke="none" 
	d="
M325.976166,293.892456 
	C323.519806,297.905304 321.038452,301.903168 318.617432,305.937195 
	C317.373749,308.009521 316.237701,310.146484 315.015289,312.611420 
	C311.834778,315.847076 308.691986,318.725555 305.282135,321.805786 
	C303.527740,321.500305 302.040436,320.993103 300.584106,320.138763 
	C301.809021,318.946198 303.268585,318.314178 304.149567,317.217377 
	C307.511261,313.032166 310.376801,308.408661 314.018799,304.499603 
	C317.634338,300.618927 321.961243,297.401031 325.976166,293.892456 
z"/>
<path fill="#742F11" opacity="1.000000" stroke="none" 
	d="
M326.160767,293.604736 
	C321.961243,297.401031 317.634338,300.618927 314.018799,304.499603 
	C310.376801,308.408661 307.511261,313.032166 304.149567,317.217377 
	C303.268585,318.314178 301.809021,318.946198 300.302704,319.959473 
	C299.830231,320.071228 299.670197,320.015167 299.269836,319.874573 
	C298.990662,319.321564 298.951874,318.853119 298.940247,318.147339 
	C298.837616,315.216705 298.707825,312.523438 298.991760,309.259644 
	C308.409485,303.842468 315.365204,296.739685 321.399200,288.642731 
	C324.816315,284.057251 328.150726,279.410156 331.522400,274.790802 
	C329.796722,280.966217 328.071045,287.141632 326.160767,293.604736 
z"/>
<path fill="#E96F19" opacity="1.000000" stroke="none" 
	d="
M272.119934,282.406403 
	C273.452087,282.900970 275.188141,283.565247 275.903351,284.814148 
	C279.115814,290.423706 284.630524,291.700684 290.611786,292.983917 
	C291.047424,294.368073 291.090607,295.739105 290.732849,297.456970 
	C288.885345,297.777466 286.444580,297.238403 286.151428,297.806885 
	C284.035919,301.909058 280.197021,300.681183 276.942596,301.241089 
	C275.312988,295.109161 273.683380,288.977234 272.119934,282.406403 
z"/>
<path fill="#A14416" opacity="1.000000" stroke="none" 
	d="
M291.356445,300.815063 
	C291.642822,302.238525 291.929169,303.661957 291.875488,305.561432 
	C288.689270,307.729431 285.843140,309.421417 282.996979,311.113373 
	C281.746063,309.275330 280.495148,307.437286 279.524841,305.316620 
	C281.822235,304.649689 283.928986,304.510651 285.830719,303.812866 
	C287.777222,303.098694 289.522888,301.837067 291.356445,300.815063 
z"/>
<path fill="#742F11" opacity="1.000000" stroke="none" 
	d="
M283.180695,311.373840 
	C285.843140,309.421417 288.689270,307.729431 291.900879,305.926270 
	C292.824249,307.339111 293.382233,308.863068 293.880981,310.739868 
	C292.176514,312.666443 290.531311,314.240173 288.311005,316.364014 
	C286.789093,314.908813 285.076752,313.271545 283.180695,311.373840 
z"/>
<path fill="#B65726" opacity="1.000000" stroke="none" 
	d="
M291.365387,300.452393 
	C289.522888,301.837067 287.777222,303.098694 285.830719,303.812866 
	C283.928986,304.510651 281.822235,304.649689 279.422424,304.996338 
	C278.374786,303.918365 277.710236,302.878082 276.994141,301.539429 
	C280.197021,300.681183 284.035919,301.909058 286.151428,297.806885 
	C286.444580,297.238403 288.885345,297.777466 290.703796,297.867554 
	C291.175262,298.650818 291.274780,299.370270 291.365387,300.452393 
z"/>
<path fill="#A14416" opacity="1.000000" stroke="none" 
	d="
M331.598328,274.375916 
	C328.150726,279.410156 324.816315,284.057251 321.399200,288.642731 
	C315.365204,296.739685 308.409485,303.842468 299.061218,308.767426 
	C299.553925,304.827545 300.390900,300.809357 301.585693,296.477295 
	C303.882629,295.637299 306.092529,295.528015 307.696472,294.486053 
	C310.018066,292.977844 311.901093,290.794617 314.308777,288.838409 
	C316.411407,286.480133 318.357513,284.297882 319.905579,281.862610 
	C323.657837,275.959900 327.224792,269.939331 330.866425,263.966278 
	C331.135712,267.297852 331.404968,270.629425 331.598328,274.375916 
z"/>
<path fill="#E96F19" opacity="1.000000" stroke="none" 
	d="
M313.971191,288.899353 
	C311.901093,290.794617 310.018066,292.977844 307.696472,294.486053 
	C306.092529,295.528015 303.882629,295.637299 301.621399,296.076263 
	C305.109009,288.222809 308.918762,280.456482 312.848694,272.332947 
	C319.689392,268.368134 321.556396,261.581024 323.947357,255.153885 
	C324.635132,253.305099 325.144165,251.389816 325.909637,249.161285 
	C327.032654,250.976501 327.981201,253.135437 328.668884,255.807861 
	C325.663971,261.715790 322.693390,267.009644 320.240570,272.533417 
	C317.872955,277.865356 316.039368,283.434448 313.971191,288.899353 
z"/>
<path fill="#B65726" opacity="1.000000" stroke="none" 
	d="
M314.308746,288.838409 
	C316.039368,283.434448 317.872955,277.865356 320.240570,272.533417 
	C322.693390,267.009644 325.663971,261.715790 328.711365,256.166992 
	C329.654938,258.408569 330.295258,260.804504 330.901001,263.583374 
	C327.224792,269.939331 323.657837,275.959900 319.905579,281.862610 
	C318.357513,284.297882 316.411407,286.480133 314.308746,288.838409 
z"/>
</svg>